<?xml version="1.0" encoding="utf-8"?>
<!-- Generator: Adobe Illustrator 16.0.0, SVG Export Plug-In . SVG Version: 6.00 Build 0)  -->
<!DOCTYPE svg PUBLIC "-//W3C//DTD SVG 1.1//EN" "http://www.w3.org/Graphics/SVG/1.1/DTD/svg11.dtd">
<svg version="1.1" id="Capa_1" xmlns="http://www.w3.org/2000/svg" xmlns:xlink="http://www.w3.org/1999/xlink" x="0px" y="0px"
	 width="90px" height="90px" viewBox="170.062 340.123 90 90" enable-background="new 170.062 340.123 90 90" xml:space="preserve">
<g>
	<path id="Behance" fill="#FFFFFF" d="M251.338,366.172h-22.551v-5.602h22.553v5.602H251.338z M213.775,389.142
		c1.455,2.254,2.182,4.99,2.182,8.203c0,3.322-0.82,6.303-2.488,8.936c-1.061,1.742-2.378,3.213-3.961,4.398
		c-1.783,1.369-3.893,2.309-6.32,2.811c-2.434,0.504-5.068,0.758-7.906,0.758h-25.22v-56h27.044
		c6.817,0.111,11.65,2.086,14.504,5.965c1.712,2.379,2.561,5.233,2.561,8.551c0,3.424-0.859,6.164-2.588,8.244
		c-0.962,1.168-2.383,2.229-4.264,3.188C210.168,385.237,212.33,386.88,213.775,389.142z M182.977,380.325h11.85
		c2.435,0,4.404-0.463,5.92-1.389c1.515-0.924,2.271-2.566,2.271-4.924c0-2.604-1.001-4.334-3.008-5.166
		c-1.725-0.578-3.932-0.875-6.61-0.875h-10.423V380.325z M204.158,396.544c0-2.908-1.189-4.92-3.562-5.998
		c-1.327-0.613-3.199-0.928-5.6-0.949h-12.02v14.924h11.833c2.432,0,4.313-0.318,5.671-0.982
		C202.93,402.317,204.158,399.993,204.158,396.544z M259.705,387.435c0.272,1.832,0.396,4.49,0.346,7.965h-29.206
		c0.161,4.031,1.553,6.85,4.192,8.463c1.592,1.012,3.521,1.506,5.781,1.506c2.383,0,4.325-0.602,5.82-1.84
		c0.814-0.657,1.533-1.584,2.154-2.753h10.705c-0.28,2.382-1.569,4.796-3.886,7.25c-3.589,3.9-8.622,5.856-15.086,5.856
		c-5.34,0-10.046-1.649-14.131-4.937c-4.071-3.298-6.116-8.647-6.116-16.069c0-6.959,1.836-12.285,5.52-15.992
		c3.697-3.714,8.47-5.563,14.351-5.563c3.486,0,6.629,0.623,9.433,1.875c2.795,1.255,5.104,3.229,6.924,5.941
		C258.152,381.526,259.211,384.288,259.705,387.435z M249.168,388.479c-0.196-2.788-1.127-4.898-2.803-6.34
		c-1.662-1.445-3.738-2.172-6.216-2.172c-2.696,0-4.778,0.776-6.257,2.301c-1.49,1.522-2.417,3.592-2.797,6.211H249.168
		L249.168,388.479z"/>
</g>
</svg>
