<?xml version="1.0" encoding="utf-8"?>
<!-- Generator: Adobe Illustrator 16.0.0, SVG Export Plug-In . SVG Version: 6.00 Build 0)  -->
<!DOCTYPE svg PUBLIC "-//W3C//DTD SVG 1.1//EN" "http://www.w3.org/Graphics/SVG/1.1/DTD/svg11.dtd">
<svg version="1.1" id="Capa_1" xmlns="http://www.w3.org/2000/svg" xmlns:xlink="http://www.w3.org/1999/xlink" x="0px" y="0px"
	 width="90px" height="90px" viewBox="3.062 6.123 90 90" enable-background="new 3.062 6.123 90 90" xml:space="preserve">
<g>
	<path fill="#FFFFFF" d="M70.559,6.142L58.888,6.123c-13.112,0-21.586,8.694-21.586,22.149v10.212H25.567
		c-1.014,0-1.835,0.822-1.835,1.836v14.797c0,1.014,0.822,1.835,1.835,1.835h11.734v37.336c0,1.014,0.821,1.835,1.835,1.835h15.311
		c1.014,0,1.834-0.822,1.834-1.835V56.952h13.721c1.016,0,1.837-0.821,1.837-1.835l0.005-14.797c0-0.487-0.193-0.953-0.537-1.297
		c-0.344-0.345-0.813-0.539-1.299-0.539H56.282v-8.657c0-4.161,0.992-6.273,6.413-6.273l7.862-0.003
		c1.013,0,1.834-0.822,1.834-1.835V7.977C72.391,6.965,71.57,6.144,70.559,6.142z"/>
</g>
</svg>
