<?xml version="1.0" encoding="utf-8"?>
<!-- Generator: Adobe Illustrator 16.0.0, SVG Export Plug-In . SVG Version: 6.00 Build 0)  -->
<!DOCTYPE svg PUBLIC "-//W3C//DTD SVG 1.1//EN" "http://www.w3.org/Graphics/SVG/1.1/DTD/svg11.dtd">
<svg version="1.1" id="Layer_1" xmlns="http://www.w3.org/2000/svg" xmlns:xlink="http://www.w3.org/1999/xlink" x="0px" y="0px"
	 width="90px" height="90px" viewBox="315 110 90 90" enable-background="new 315 110 90 90" xml:space="preserve">
<path fill="#FFFFFF" d="M344.18,136.094c6.094,0,11.606,3.127,14.766,7.436l7.488-7.541c-4.479-5.824-13.098-10.441-22.254-10.441
	c-16.031,0-29.18,12.973-29.18,29.004s13.148,29.004,29.18,29.004c13.289,0,24.469-8.912,27.896-21.094
	c0.738-2.531,1.107-5.168,1.107-7.91v-2.637h-26.367v10.545h13.975c-2.9,6.223-9.281,10.549-16.611,10.549
	c-10.178,0-18.633-8.279-18.633-18.457S334.002,136.094,344.18,136.094z"/>
<path fill="#FFFFFF" d="M396.914,141.367h-10.547v7.91h-7.91v10.547h7.91v7.91h10.547v-7.91H405v-10.547h-8.086V141.367z"/>
</svg>
