<?xml version="1.0" encoding="utf-8"?>
<!-- Generator: Adobe Illustrator 16.0.0, SVG Export Plug-In . SVG Version: 6.00 Build 0)  -->
<!DOCTYPE svg PUBLIC "-//W3C//DTD SVG 1.1//EN" "http://www.w3.org/Graphics/SVG/1.1/DTD/svg11.dtd">
<svg version="1.1" id="Capa_1" xmlns="http://www.w3.org/2000/svg" xmlns:xlink="http://www.w3.org/1999/xlink" x="0px" y="0px"
	 width="90px" height="90px" viewBox="315 110 90 90" enable-background="new 315 110 90 90" xml:space="preserve">
<g>
	<g>
		<path fill="#FFFFFF" d="M405,128.649c-3.313,1.468-6.866,2.464-10.602,2.907c3.813-2.283,6.732-5.904,8.116-10.207
			c-3.577,2.115-7.525,3.65-11.732,4.482c-3.368-3.594-8.16-5.832-13.475-5.832c-10.196,0-18.463,8.268-18.463,18.458
			c0,1.445,0.163,2.856,0.478,4.206c-15.342-0.77-28.946-8.121-38.051-19.289c-1.592,2.721-2.498,5.893-2.498,9.279
			c0,6.405,3.262,12.058,8.211,15.364c-3.026-0.102-5.872-0.934-8.363-2.317v0.23c0,8.942,6.366,16.405,14.808,18.104
			c-1.546,0.416-3.178,0.647-4.865,0.647c-1.192,0-2.345-0.118-3.476-0.343c2.351,7.339,9.167,12.676,17.243,12.822
			c-6.315,4.949-14.279,7.891-22.929,7.891c-1.49,0-2.958-0.09-4.403-0.254c8.171,5.248,17.873,8.307,28.299,8.307
			c33.963,0,52.527-28.131,52.527-52.527l-0.062-2.391C399.394,135.602,402.531,132.35,405,128.649z"/>
	</g>
</g>
</svg>
